# xmcd CD database file
#
# Track frame offsets:
#	150
#	17280
#	37697
#
# Disc length: 736 seconds
#
# Revision: 0
# Processed by: cddbd v1.5.1PL0 Copyright (c) Steve Scherf et al.
# Submitted via: CDex 1.51
#
DISCID=0e02de03
DTITLE=Gordon Huskell - There goes my Heart again
DYEAR=1900
DGENRE=Country
TTITLE0=Radio edit
TTITLE1=Single version
TTITLE2=Self made Man
EXTD=
EXTT0=
EXTT1=
EXTT2=
PLAYORDER=
